<svg version="1.1" xmlns="http://www.w3.org/2000/svg" xmlns:xlink="http://www.w3.org/1999/xlink" x="0px" y="0px"
    viewBox="0 0 13 10.7" style="enable-background:new 0 0 13 10.7;" xml:space="preserve" width="15" height="14">
    <path class="st0" style="fill:#FFFFFF;" d="M4.8,0.2C5.1-0.1,5.4,0,5.4,0.4v9.9c0,0.4-0.3,0.5-0.6,0.2L1.9,7.6H0V3.1h1.9L4.8,0.2z"></path>
    <path class="cross" d="M10.5,5.4l1.8-1.8c0.2-0.2,0.2-0.6,0-0.8c-0.2-0.2-0.6-0.2-0.8,0L9.7,4.6L7.9,2.8c-0.2-0.2-0.6-0.2-0.8,0
                        C7,3,7,3.4,7.2,3.6l1.8,1.8L7.2,7.1C7,7.3,7,7.7,7.2,7.9l0,0c0.2,0.2,0.6,0.2,0.8,0l1.8-1.8l1.8,1.8c0.2,0.2,0.6,0.2,0.8,0l0,0
                        c0.2-0.2,0.2-0.6,0-0.8L10.5,5.4z"></path>
    <g class="volume" style="fill:#FFFFFF;">
        <path class="st0"
            d="M10.6,10.3c-0.1,0-0.3-0.1-0.4-0.2c-0.2-0.2-0.2-0.6,0-0.8c1-1,1.6-2.4,1.6-3.9s-0.6-2.9-1.6-3.9
                            c-0.2-0.2-0.2-0.6,0-0.8c0.2-0.2,0.6-0.2,0.8,0c1.3,1.3,2,2.9,2,4.7s-0.7,3.5-2,4.7C10.9,10.2,10.8,10.3,10.6,10.3z">
        </path>
        <path class="st0" style="fill:#FFFFFF;" d="M8.6,9.2C8.5,9.2,8.3,9.1,8.2,9C8,8.8,8,8.4,8.2,8.2c1.6-1.6,1.6-4.1,0-5.7C8,2.3,8,1.9,8.2,1.7
                            c0.2-0.2,0.6-0.2,0.8,0c1,1,1.5,2.3,1.5,3.6S10,8,9,9C8.9,9.1,8.7,9.2,8.6,9.2z"></path>
        <path class="st0" style="fill:#FFFFFF;" d="M6.6,8.1C6.4,8.1,6.3,8,6.2,7.9c-0.2-0.2-0.2-0.6,0-0.8c1-1,1-2.5,0-3.5C5.9,3.4,5.9,3,6.2,2.8
                            c0.2-0.2,0.6-0.2,0.8,0c1.4,1.4,1.4,3.7,0,5.1C6.9,8,6.7,8.1,6.6,8.1z"></path>
    </g>
</svg>