{
    "asset" : {
        "version" : "2.0",
        "generator" : "Khronos glTF Blender I/O v0.9.26"
    },
    "scene" : 0,
    "scenes" : [
        {
            "name" : "Scene",
            "nodes" : [
                0
            ]
        }
    ],
    "nodes" : [
        {
            "rotation" : [
                0.7916625738143921,
                0.024414462968707085,
                0.6100232005119324,
                0.023365303874015808
            ],
            "scale" : [
                0.1472291350364685,
                0.22900202870368958,
                0.11884643137454987
            ],
            "name" : "Bush_3",
            "mesh" : 0,
            "translation" : [
                0.04880369082093239,
                1.4173122644424438,
                -0.2299731820821762
            ]
        }
    ],
    "materials" : [
        {
            "name" : "ID 1.014",
            "pbrMetallicRoughness" : {}
        },
        {
            "name" : "ID 2.014",
            "pbrMetallicRoughness" : {}
        }
    ],
    "meshes" : [
        {
            "primitives" : [
                {
                    "attributes" : {
                        "NORMAL" : 0,
                        "TEXCOORD_0" : 1,
                        "POSITION" : 2
                    },
                    "indices" : 3,
                    "material" : 0
                },
                {
                    "attributes" : {
                        "NORMAL" : 4,
                        "TEXCOORD_0" : 5,
                        "POSITION" : 6
                    },
                    "indices" : 7,
                    "material" : 1
                }
            ],
            "name" : "Untitled.014"
        }
    ],
    "accessors" : [
        {
            "type" : "VEC3",
            "count" : 540,
            "bufferView" : 0,
            "componentType" : 5126
        },
        {
            "type" : "VEC2",
            "count" : 540,
            "bufferView" : 1,
            "componentType" : 5126
        },
        {
            "type" : "VEC3",
            "bufferView" : 2,
            "max" : [
                9.713308334350586,
                6.494929313659668,
                7.816919326782227
            ],
            "min" : [
                -8.761110305786133,
                -4.2905497550964355,
                -11.089204788208008
            ],
            "count" : 540,
            "componentType" : 5126
        },
        {
            "type" : "SCALAR",
            "count" : 540,
            "bufferView" : 3,
            "componentType" : 5123
        },
        {
            "type" : "VEC3",
            "count" : 250,
            "bufferView" : 4,
            "componentType" : 5126
        },
        {
            "type" : "VEC2",
            "count" : 250,
            "bufferView" : 5,
            "componentType" : 5126
        },
        {
            "type" : "VEC3",
            "bufferView" : 6,
            "max" : [
                7.25145149230957,
                6.278420448303223,
                4.687686920166016
            ],
            "min" : [
                -6.9139323234558105,
                1.8945894241333008,
                -8.051715850830078
            ],
            "count" : 250,
            "componentType" : 5126
        },
        {
            "type" : "SCALAR",
            "count" : 390,
            "bufferView" : 7,
            "componentType" : 5123
        }
    ],
    "bufferViews" : [
        {
            "byteOffset" : 0,
            "buffer" : 0,
            "byteLength" : 6480
        },
        {
            "byteOffset" : 6480,
            "buffer" : 0,
            "byteLength" : 4320
        },
        {
            "byteOffset" : 10800,
            "buffer" : 0,
            "byteLength" : 6480
        },
        {
            "byteOffset" : 17280,
            "buffer" : 0,
            "byteLength" : 1080
        },
        {
            "byteOffset" : 18360,
            "buffer" : 0,
            "byteLength" : 3000
        },
        {
            "byteOffset" : 21360,
            "buffer" : 0,
            "byteLength" : 2000
        },
        {
            "byteOffset" : 23360,
            "buffer" : 0,
            "byteLength" : 3000
        },
        {
            "byteOffset" : 26360,
            "buffer" : 0,
            "byteLength" : 780
        }
    ],
    "buffers" : [
        {
            "byteLength" : 27140,
            "uri" : "data:application/octet-stream;base64,"
        }
    ]
}
