{
    "asset" : {
        "generator" : "Khronos glTF Blender I/O v0.9.26",
        "version" : "2.0"
    },
    "scene" : 0,
    "scenes" : [
        {
            "name" : "Scene",
            "nodes" : [
                0,
                1,
                2,
                3,
                4,
                5,
                6,
                7,
                8,
                9
            ]
        }
    ],
    "nodes" : [
        {
            "name" : "Cube.009",
            "scale" : [
                0.10000000149011612,
                0.20000000298023224,
                5
            ],
            "mesh" : 0,
            "translation" : [
                2,
                -0.17928063869476318,
                0
            ],
            "rotation" : [
                0.6926614046096802,
                0.14219753444194794,
                0.14219754934310913,
                0.692661464214325
            ]
        },
        {
            "name" : "Cube.008",
            "scale" : [
                0.10000000149011612,
                0.20000000298023224,
                0.20000000298023224
            ],
            "mesh" : 1,
            "translation" : [
                -0.20000000298023224,
                3.450000047683716,
                0
            ],
            "rotation" : [
                0.7071067690849304,
                0,
                0,
                0.7071068286895752
            ]
        },
        {
            "name" : "Cube.007",
            "scale" : [
                0.10000000149011612,
                0.20000000298023224,
                0.47443073987960815
            ],
            "mesh" : 2,
            "translation" : [
                -0.20000000298023224,
                3.0700104236602783,
                0
            ],
            "rotation" : [
                0,
                0,
                0,
                -1
            ]
        },
        {
            "name" : "Cube.006",
            "scale" : [
                0.10000000149011612,
                0.20000000298023224,
                2.0999999046325684
            ],
            "mesh" : 3,
            "translation" : [
                -0.30000001192092896,
                -1,
                0
            ],
            "rotation" : [
                0,
                0,
                -0.7071065902709961,
                -0.7071069478988647
            ]
        },
        {
            "name" : "Cube.005",
            "scale" : [
                0.10000000149011612,
                0.20000000298023224,
                2.0999999046325684
            ],
            "mesh" : 4,
            "translation" : [
                -0.20000000298023224,
                -1.2999999523162842,
                0
            ],
            "rotation" : [
                0,
                0,
                0,
                -1
            ]
        },
        {
            "name" : "Cube.004",
            "scale" : [
                0.10000000149011612,
                0.20000000298023224,
                1.5
            ],
            "mesh" : 5,
            "translation" : [
                0.20000000298023224,
                3.0700104236602783,
                0
            ],
            "rotation" : [
                0,
                0,
                0,
                -1
            ]
        },
        {
            "name" : "Cube.003",
            "scale" : [
                0.10000000149011612,
                0.20000000298023224,
                2.0999999046325684
            ],
            "mesh" : 6,
            "translation" : [
                0.20000000298023224,
                -3.299999952316284,
                0
            ],
            "rotation" : [
                0,
                0,
                0,
                -1
            ]
        },
        {
            "name" : "Cube.002",
            "scale" : [
                0.10000000149011612,
                0.20000000298023224,
                5
            ],
            "mesh" : 7,
            "translation" : [
                0,
                -0.5284225940704346,
                1.5
            ],
            "rotation" : [
                -0.7372773289680481,
                0,
                0,
                0.6755902171134949
            ]
        },
        {
            "name" : "Cube.001",
            "scale" : [
                0.10000000149011612,
                0.20000000298023224,
                5
            ],
            "mesh" : 8,
            "translation" : [
                0,
                -0.5284225940704346,
                -1.5
            ],
            "rotation" : [
                0.7372773289680481,
                0,
                0,
                0.6755902171134949
            ]
        },
        {
            "name" : "Cube",
            "scale" : [
                0.10000000149011612,
                0.20000000298023224,
                5
            ],
            "mesh" : 9,
            "translation" : [
                0,
                1.5,
                0
            ],
            "rotation" : [
                0.7071067690849304,
                0,
                0,
                0.7071068286895752
            ]
        }
    ],
    "meshes" : [
        {
            "name" : "Cube.018",
            "primitives" : [
                {
                    "indices" : 2,
                    "attributes" : {
                        "POSITION" : 0,
                        "NORMAL" : 1
                    }
                }
            ]
        },
        {
            "name" : "Cube.017",
            "primitives" : [
                {
                    "indices" : 2,
                    "attributes" : {
                        "POSITION" : 3,
                        "NORMAL" : 4
                    }
                }
            ]
        },
        {
            "name" : "Cube.016",
            "primitives" : [
                {
                    "indices" : 2,
                    "attributes" : {
                        "POSITION" : 5,
                        "NORMAL" : 6
                    }
                }
            ]
        },
        {
            "name" : "Cube.015",
            "primitives" : [
                {
                    "indices" : 2,
                    "attributes" : {
                        "POSITION" : 7,
                        "NORMAL" : 8
                    }
                }
            ]
        },
        {
            "name" : "Cube.014",
            "primitives" : [
                {
                    "indices" : 2,
                    "attributes" : {
                        "POSITION" : 9,
                        "NORMAL" : 10
                    }
                }
            ]
        },
        {
            "name" : "Cube.012",
            "primitives" : [
                {
                    "indices" : 2,
                    "attributes" : {
                        "POSITION" : 11,
                        "NORMAL" : 12
                    }
                }
            ]
        },
        {
            "name" : "Cube.011",
            "primitives" : [
                {
                    "indices" : 2,
                    "attributes" : {
                        "POSITION" : 13,
                        "NORMAL" : 14
                    }
                }
            ]
        },
        {
            "name" : "Cube.010",
            "primitives" : [
                {
                    "indices" : 2,
                    "attributes" : {
                        "POSITION" : 15,
                        "NORMAL" : 16
                    }
                }
            ]
        },
        {
            "name" : "Cube.009",
            "primitives" : [
                {
                    "indices" : 2,
                    "attributes" : {
                        "POSITION" : 17,
                        "NORMAL" : 18
                    }
                }
            ]
        },
        {
            "name" : "Cube.008",
            "primitives" : [
                {
                    "indices" : 2,
                    "attributes" : {
                        "POSITION" : 19,
                        "NORMAL" : 20
                    }
                }
            ]
        }
    ],
    "accessors" : [
        {
            "type" : "VEC3",
            "count" : 24,
            "componentType" : 5126,
            "min" : [
                -1,
                -1,
                -1
            ],
            "max" : [
                1,
                1,
                1
            ],
            "bufferView" : 0
        },
        {
            "bufferView" : 1,
            "count" : 24,
            "componentType" : 5126,
            "type" : "VEC3"
        },
        {
            "bufferView" : 2,
            "count" : 36,
            "componentType" : 5123,
            "type" : "SCALAR"
        },
        {
            "type" : "VEC3",
            "count" : 24,
            "componentType" : 5126,
            "min" : [
                -1,
                -1,
                -1
            ],
            "max" : [
                1,
                1,
                1
            ],
            "bufferView" : 3
        },
        {
            "bufferView" : 4,
            "count" : 24,
            "componentType" : 5126,
            "type" : "VEC3"
        },
        {
            "type" : "VEC3",
            "count" : 24,
            "componentType" : 5126,
            "min" : [
                -1,
                -1,
                -1
            ],
            "max" : [
                1,
                1,
                1
            ],
            "bufferView" : 5
        },
        {
            "bufferView" : 6,
            "count" : 24,
            "componentType" : 5126,
            "type" : "VEC3"
        },
        {
            "type" : "VEC3",
            "count" : 24,
            "componentType" : 5126,
            "min" : [
                -1,
                -1,
                -1
            ],
            "max" : [
                1,
                1,
                1
            ],
            "bufferView" : 7
        },
        {
            "bufferView" : 8,
            "count" : 24,
            "componentType" : 5126,
            "type" : "VEC3"
        },
        {
            "type" : "VEC3",
            "count" : 24,
            "componentType" : 5126,
            "min" : [
                -1,
                -1,
                -1
            ],
            "max" : [
                1,
                1,
                1
            ],
            "bufferView" : 9
        },
        {
            "bufferView" : 10,
            "count" : 24,
            "componentType" : 5126,
            "type" : "VEC3"
        },
        {
            "type" : "VEC3",
            "count" : 24,
            "componentType" : 5126,
            "min" : [
                -1,
                -1,
                -1
            ],
            "max" : [
                1,
                1,
                1
            ],
            "bufferView" : 11
        },
        {
            "bufferView" : 12,
            "count" : 24,
            "componentType" : 5126,
            "type" : "VEC3"
        },
        {
            "type" : "VEC3",
            "count" : 24,
            "componentType" : 5126,
            "min" : [
                -1,
                -1,
                -1
            ],
            "max" : [
                1,
                1,
                1
            ],
            "bufferView" : 13
        },
        {
            "bufferView" : 14,
            "count" : 24,
            "componentType" : 5126,
            "type" : "VEC3"
        },
        {
            "type" : "VEC3",
            "count" : 24,
            "componentType" : 5126,
            "min" : [
                -1,
                -1,
                -1
            ],
            "max" : [
                1,
                1,
                1
            ],
            "bufferView" : 15
        },
        {
            "bufferView" : 16,
            "count" : 24,
            "componentType" : 5126,
            "type" : "VEC3"
        },
        {
            "type" : "VEC3",
            "count" : 24,
            "componentType" : 5126,
            "min" : [
                -1,
                -1,
                -1
            ],
            "max" : [
                1,
                1,
                1
            ],
            "bufferView" : 17
        },
        {
            "bufferView" : 18,
            "count" : 24,
            "componentType" : 5126,
            "type" : "VEC3"
        },
        {
            "type" : "VEC3",
            "count" : 24,
            "componentType" : 5126,
            "min" : [
                -1,
                -1,
                -1
            ],
            "max" : [
                1,
                1,
                1
            ],
            "bufferView" : 19
        },
        {
            "bufferView" : 20,
            "count" : 24,
            "componentType" : 5126,
            "type" : "VEC3"
        }
    ],
    "bufferViews" : [
        {
            "buffer" : 0,
            "byteOffset" : 0,
            "byteLength" : 288
        },
        {
            "buffer" : 0,
            "byteOffset" : 288,
            "byteLength" : 288
        },
        {
            "buffer" : 0,
            "byteOffset" : 576,
            "byteLength" : 72
        },
        {
            "buffer" : 0,
            "byteOffset" : 648,
            "byteLength" : 288
        },
        {
            "buffer" : 0,
            "byteOffset" : 936,
            "byteLength" : 288
        },
        {
            "buffer" : 0,
            "byteOffset" : 1224,
            "byteLength" : 288
        },
        {
            "buffer" : 0,
            "byteOffset" : 1512,
            "byteLength" : 288
        },
        {
            "buffer" : 0,
            "byteOffset" : 1800,
            "byteLength" : 288
        },
        {
            "buffer" : 0,
            "byteOffset" : 2088,
            "byteLength" : 288
        },
        {
            "buffer" : 0,
            "byteOffset" : 2376,
            "byteLength" : 288
        },
        {
            "buffer" : 0,
            "byteOffset" : 2664,
            "byteLength" : 288
        },
        {
            "buffer" : 0,
            "byteOffset" : 2952,
            "byteLength" : 288
        },
        {
            "buffer" : 0,
            "byteOffset" : 3240,
            "byteLength" : 288
        },
        {
            "buffer" : 0,
            "byteOffset" : 3528,
            "byteLength" : 288
        },
        {
            "buffer" : 0,
            "byteOffset" : 3816,
            "byteLength" : 288
        },
        {
            "buffer" : 0,
            "byteOffset" : 4104,
            "byteLength" : 288
        },
        {
            "buffer" : 0,
            "byteOffset" : 4392,
            "byteLength" : 288
        },
        {
            "buffer" : 0,
            "byteOffset" : 4680,
            "byteLength" : 288
        },
        {
            "buffer" : 0,
            "byteOffset" : 4968,
            "byteLength" : 288
        },
        {
            "buffer" : 0,
            "byteOffset" : 5256,
            "byteLength" : 288
        },
        {
            "buffer" : 0,
            "byteOffset" : 5544,
            "byteLength" : 288
        }
    ],
    "buffers" : [
        {
            "byteLength" : 5832,
            "uri" : "data:application/octet-stream;base64,"
        }
    ]
}
