{
    "asset" : {
        "version" : "2.0",
        "generator" : "Khronos glTF Blender I/O v0.9.26"
    },
    "scene" : 0,
    "scenes" : [
        {
            "name" : "Scene",
            "nodes" : [
                0
            ]
        }
    ],
    "nodes" : [
        {
            "rotation" : [
                0.7071068286895752,
                0,
                0,
                0.7071067094802856
            ],
            "mesh" : 0,
            "scale" : [
                0.2911607623100281,
                0.29116082191467285,
                0.29116082191467285
            ],
            "name" : "Fence_2_Start_2"
        }
    ],
    "materials" : [
        {
            "pbrMetallicRoughness" : {
                "baseColorFactor" : [
                    0.3277781009674072,
                    0.15292617678642273,
                    0.05612849444150925,
                    1
                ],
                "metallicFactor" : 0.19831223785877228,
                "roughnessFactor" : 0.4514768123626709
            },
            "name" : "grass"
        }
    ],
    "meshes" : [
        {
            "primitives" : [
                {
                    "material" : 0,
                    "attributes" : {
                        "NORMAL" : 0,
                        "POSITION" : 1,
                        "TEXCOORD_0" : 2
                    },
                    "indices" : 3
                }
            ],
            "name" : "Untitled"
        }
    ],
    "accessors" : [
        {
            "componentType" : 5126,
            "type" : "VEC3",
            "bufferView" : 0,
            "count" : 300
        },
        {
            "max" : [
                0.7335821986198425,
                0.7085736989974976,
                0.07868044078350067
            ],
            "type" : "VEC3",
            "min" : [
                -0.6982957720756531,
                -8.502113342285156,
                -4.722472667694092
            ],
            "count" : 300,
            "componentType" : 5126,
            "bufferView" : 1
        },
        {
            "componentType" : 5126,
            "type" : "VEC2",
            "bufferView" : 2,
            "count" : 300
        },
        {
            "componentType" : 5123,
            "type" : "SCALAR",
            "bufferView" : 3,
            "count" : 300
        }
    ],
    "bufferViews" : [
        {
            "byteLength" : 3600,
            "buffer" : 0,
            "byteOffset" : 0
        },
        {
            "byteLength" : 3600,
            "buffer" : 0,
            "byteOffset" : 3600
        },
        {
            "byteLength" : 2400,
            "buffer" : 0,
            "byteOffset" : 7200
        },
        {
            "byteLength" : 600,
            "buffer" : 0,
            "byteOffset" : 9600
        }
    ],
    "buffers" : [
        {
            "uri" : "data:application/octet-stream;base64,",
            "byteLength" : 10200
        }
    ]
}
